<svg xmlns:inkscape="http://www.inkscape.org/namespaces/inkscape" xmlns:sodipodi="http://sodipodi.sourceforge.net/DTD/sodipodi-0.dtd" xmlns="http://www.w3.org/2000/svg" xmlns:svg="http://www.w3.org/2000/svg" version="1.1" id="svg2" width="602.97333" height="559.70667" viewBox="0 0 602.97333 559.70667" sodipodi:docname="medicine-symbol-seeklogo.com.eps">
  <defs id="defs6" fill="#053f88"/>
  <sodipodi:namedview id="namedview4" pagecolor="#053f88" bordercolor="#053f88" borderopacity="0.25" inkscape:showpageshadow="2" inkscape:pageopacity="0.0" inkscape:pagecheckerboard="0" inkscape:deskcolor="#053f88" fill="#053f88"/>
  <g id="g8" inkscape:groupmode="layer" inkscape:label="ink_ext_XXXXXX" transform="matrix(1.3333333,0,0,-1.3333333,0,559.70667)">
    <g id="g10" transform="scale(0.1)">
      <path d="m 2477.86,1664.16 c -49.51,-15.76 -97.27,-37.03 -155.13,-60.04 30.19,-20.24 52.66,-33.78 73.49,-49.51 118.56,-89.51 127.96,-224.69 18.23,-323.99 -39.68,-35.91 -89.04,-61.64 -135.62,-89.26 -51.2,-30.38 -107.55,-52.94 -155.95,-87.04 -152.88,-107.711 -177.85,-326.3 -52.69,-457.441 26.16,-27.41 63.51,-44.129 95.71,-65.777 3.63,5.179 7.27,10.359 10.9,15.539 -15.79,18.558 -32.08,36.73 -47.31,55.757 -98.85,123.473 -68.49,292.571 68.34,371.204 36.21,20.82 77.9,31.958 114.63,52.028 68.9,37.64 143.48,69.76 202.46,119.8 157.95,134.01 158.13,360.03 7.05,501.3 -11.06,10.36 -32.23,21.22 -44.11,17.43 z M 2328.23,1860 c 1.57,150.66 1.04,301.35 1.04,457.42 -29.21,-6.13 -54.26,-13.15 -79.79,-16.35 -45.67,-5.72 -58.08,-29.96 -56.8,-74.84 3.55,-124.53 1.66,-249.19 2.81,-373.8 0.18,-19.48 5.01,-38.92 8.32,-62.87 38.96,13.91 71.03,23.12 100.82,37.18 10.99,5.2 23.48,21.76 23.6,33.26 z m 292.97,507.94 c -11.3,9.15 -29.12,19.98 -40.89,17.21 -76.15,-17.93 -151.47,-39.42 -225.88,-59.43 59,-36.91 121.5,-66.12 171.7,-109.56 92.47,-80.02 94.72,-213.52 1.5,-291.19 -59.32,-49.45 -132.71,-83.24 -202.59,-118.49 -82.72,-41.74 -174.49,-68.09 -251.75,-117.63 -225.06,-144.3 -231.13,-414.68 -21.55,-577.99 42.21,-32.89 71.76,-34.32 113.66,-2.05 35.37,27.26 77.81,46.3 119.05,64.63 28.75,12.78 36.93,30.29 36.68,60.58 -0.91,107.3 1.24,214.64 1.83,321.96 0.07,14.64 -2.19,29.29 -3.62,47.06 -16.79,-5.13 -28.57,-8.26 -40.02,-12.32 -80.57,-28.61 -79.76,-28.67 -79.11,-112.9 0.83,-106.52 0.21,-213.04 0.21,-335.85 -40.68,38.25 -75.8,64.23 -102.04,97.27 -88.55,111.52 -72,235.56 47.21,312.73 57.91,37.48 127.56,56.42 190.67,86.35 94.66,44.88 197.31,79.68 280.48,140.71 197.12,144.61 194.86,434.64 4.46,588.91 z m 306.27,803.34 c -23.76,-13.81 -57.99,-12.44 -87.52,-12.99 -82.62,-1.56 -165.28,-0.71 -247.92,-0.37 -78.78,0.32 -141.92,-31.56 -178.28,-100.82 -25.42,-48.43 -39.12,-103.02 -58.06,-154.85 4.95,-3.32 9.9,-6.63 14.86,-9.95 48.28,109.77 144.36,141.25 248.94,149.26 111.89,8.58 224.52,7.86 336.84,10.63 71.73,1.78 130.04,31.21 186.65,85.87 -74.26,27.87 -134.24,80.46 -215.51,33.22 z m 264.2,373.55 c 0.19,-30.19 15.08,-42.25 43.22,-47.98 147.31,-29.97 294.2,-61.99 441.51,-91.93 106.94,-21.73 198.13,18.38 261.02,116.99 -250.37,34.96 -497.45,69.47 -753.15,105.17 3.24,-33.93 7.25,-58.08 7.4,-82.25 z m -429.7,-250.97 c -50.67,-4.68 -101.64,-6.13 -152.47,-9.11 -137.79,-8.09 -229.96,-89.41 -227.45,-214.3 5.31,8.89 9.64,18.58 16.08,26.56 51.73,64.01 116.83,97.34 201.28,94.04 77.18,-3.03 154.58,-1.73 231.86,-0.62 185.3,2.66 335.85,161.73 327.72,346.33 -2.81,63.91 -15.66,124.81 -68.25,181.56 0,-26.72 -0.09,-42.44 0.01,-58.16 1.27,-204.21 -127.01,-347.66 -328.78,-366.3 z m 942.64,660.72 c -244.47,5.1 -488.91,12.94 -733.39,15.46 -162.88,1.68 -265.63,-132.18 -229.5,-290.72 5.44,-23.92 10.9,-48.05 13.36,-72.39 8.68,-85.77 -41.25,-163.64 -122.99,-194.08 -82.56,-30.75 -171.39,-6.17 -220.96,62.71 -16.11,22.39 -28.77,47.27 -46.48,76.79 0,-123.95 0,-239.45 0,-369.83 56.61,83.66 127.61,120.39 210.58,131.84 60.82,8.39 122.78,8.69 184.26,12 69.1,3.73 129.92,28.16 183.02,72.06 83.44,69 118.61,158.64 113.47,265.72 -5.3,110.16 48.74,160.09 157.58,146.5 22.67,-2.83 45.33,-5.81 68.08,-7.76 236.35,-20.24 472.65,-41.38 709.16,-59.87 101.44,-7.92 203.37,-14.75 305.01,-13.81 104.98,0.95 226.23,122.06 226.52,209.16 -272.56,5.38 -545.15,10.53 -817.72,16.22 z M 3314.29,3767.2 c -64.76,4.83 -130.18,0.76 -201.03,0.76 28.57,-75.97 66.51,-110.88 144.3,-119.39 238.73,-26.09 476,-65.28 714.13,-97.27 90.5,-12.16 197.05,51.82 235.43,138.94 -104.43,9.4 -207.31,18.97 -310.24,27.88 -194.16,16.81 -388.25,34.61 -582.59,49.08 z m -265.72,-538.33 c -0.9,-1.38 -1.22,-3.13 -3.23,-8.5 164.04,-81.4 291.44,-70.95 352.52,29.08 -43.64,13.48 -90.02,20.69 -129.33,41.37 -95.62,50.31 -164.86,23.29 -219.96,-61.95 z m 106.24,128.77 c 97.34,-28.03 191.6,-61.35 288.62,-81.21 82.72,-16.93 176.35,32.95 211.05,99.27 -154.21,32.39 -307.44,64.58 -461.64,96.97 -13.06,-39.51 -24.43,-73.91 -38.03,-115.03 z m -548.04,-448.71 c 0,0 -97.11,30.1 -117.63,-30.09 0,0 80.7,-38.3 117.63,30.09 z m 447.43,-257.29 c -54.86,-78.39 -134.34,-126.77 -221.15,-155.51 -177.71,-58.85 -359.37,-105.7 -537.57,-163.18 -89.31,-28.8 -182.59,-57.86 -259.95,-108.43 -135.41,-88.52 -130.85,-253.44 1.11,-347.52 48.19,-34.36 102.6,-59.99 157.28,-91.4 -52.42,-28.76 -101.58,-58.8 -153.67,-82.34 -14.88,-6.72 -41.14,0.38 -57.28,9.67 -132.37,76.13 -215.22,184.31 -213.39,344.08 1.84,160.29 84.14,271.74 217.57,349.29 135.85,78.98 291.25,98.26 439.45,139.87 134.78,37.85 268.06,81.16 401.46,123.8 24.66,7.88 47.53,22.64 69.75,36.59 53.66,33.68 70.31,70.92 52.47,112.55 -17.56,40.99 -75.55,69.7 -124.65,57.74 -21.42,-5.22 -43.83,-15.53 -60.45,-29.76 -72.29,-61.91 -156.8,-87.9 -249.15,-79.77 -11.95,1.05 -25.67,5.98 -38.4,12.99 34.5,11.33 66.22,26.36 76.97,45.35 h -118.69 c -8.5,27.86 -6.67,70.79 9.08,85.51 37.63,35.21 87.18,67.09 136.82,78.28 143.82,32.41 287.49,26.56 417.73,-53.07 101.7,-62.18 123.45,-186.44 54.66,-284.74 z M 1340.12,3811.59 c 78.55,5.64 126.63,-41.92 126.86,-119.97 0.05,-17.59 -1.17,-35.18 -1.13,-52.77 0.28,-142.46 95.03,-269.44 234.35,-300.1 71.37,-15.7 146.36,-15.28 219.78,-21.3 81.82,-6.72 154.25,-33.39 208.86,-97.43 8.25,-9.67 11.51,-23.58 17.08,-35.53 3.77,4.58 7.55,9.17 11.32,13.75 0,118.81 0,237.62 0,351.68 -22.58,-33.46 -40.7,-73.31 -70.12,-101.24 -63.83,-60.55 -158.18,-64.16 -234.31,-16.7 -71.46,44.54 -98.79,126.72 -79.39,222.86 8.85,43.82 19.36,91.42 11.11,133.79 -21.71,111.51 -117.18,182.4 -232.91,182.48 -501.52,0.32 -1003.034,0.22 -1504.5536,0.28 -15.4883,0 -30.9726,0 -47.0664,0 22.0078,-142.1 157.457,-255.76 299.598,-246.16 208.672,14.09 416.937,34.26 625.375,51.84 138.377,11.66 276.657,24.57 415.147,34.52 z m 639.03,-539.41 c -75.43,14.34 -153.28,16.43 -230.17,22.36 -173.78,13.42 -313.53,161.59 -315.53,335.85 -0.31,26.44 -0.04,52.88 -0.04,79.31 -81.19,-100.58 -88.91,-208.66 -39.77,-318.27 52.55,-117.22 143.1,-190.31 274.84,-199.61 66.45,-4.69 133.77,-4.95 200.22,-0.3 112.48,7.87 209.43,-15.84 277.3,-116.74 -5.09,103.72 -65.43,178.13 -166.85,197.4 z m -571.47,506.29 c -367.07,-18.29 -727.512,-60.5 -1101.16,-87.04 68.726,-98.23 147.64,-153.23 259.351,-138.66 224.203,29.25 447.799,63.16 672.099,91.66 77.85,9.9 147.74,22.95 169.71,134.04 z m 788.88,-1272.51 c 46.5,11.26 88.7,21.46 131.91,31.92 0,354.31 0,705.57 0,1058.55 -45.75,0 -88.61,0 -131.91,0 0,-364.63 0,-725.93 0,-1090.47 z m 215.62,1126.79 c 35.81,-0.64 64.79,8.32 66.19,49.64 1.43,42.59 -31.66,53.33 -64.25,53.49 -103.69,0.53 -207.4,-2.15 -311.1,-3.84 -33.28,-0.54 -60.38,-9.52 -58.09,-50.6 2.37,-42.58 30.69,-49.49 66.37,-48.59 49.23,1.23 98.53,0.31 147.8,0.31 0,-0.06 0,-0.12 0,-0.18 51.02,0 102.07,0.68 153.08,-0.23 z m -154.36,118.17 c 121.94,-2.67 225.55,97.83 228.11,221.27 2.5,120.67 -95.17,221.98 -217.43,225.51 -125.96,3.63 -230.51,-97.15 -231.21,-222.88 -0.67,-118.85 100.21,-221.28 220.53,-223.9 z m -437.7,-700.08 c 131.68,-8.1 264.08,-19.33 338.9,-156.87 -1.03,23.67 -4.1,44.27 -8.55,64.57 -30,136.6 -108.35,199.34 -248.46,199.36 -21.08,0 -42.16,-0.44 -63.23,0.03 -104.52,2.29 -211.3,-14.86 -310.24,36.29 -5.07,2.62 -13.75,1.53 -19.44,-0.89 -41.5,-17.74 -82.66,-36.27 -129.77,-57.13 65.48,-58.45 131,-86.37 208.98,-84.9 77.26,1.46 154.81,4.28 231.81,-0.46 z m -493.94,472.15 c 7.6,31.39 8.66,64.35 13.08,104.05 -254.03,-35.44 -501.147,-69.91 -755.319,-105.36 63.344,-95.18 157.86,-137.03 256.168,-117.36 151.059,30.21 301.811,62.02 452.401,94.51 12.82,2.76 31.15,13.77 33.67,24.16 z m 559.12,-614.06 c 36.93,-68.39 117.64,-30.09 117.64,-30.09 -20.52,60.19 -117.64,30.09 -117.64,30.09 z m 10.23,-509.85 c -119.73,49.02 -242.61,92.29 -356.98,151.84 -77.72,40.47 -130.25,111.26 -128.02,209.36 1.47,64.84 25.13,119.21 79.76,151.81 165.01,98.46 339.22,103.77 514.9,33.45 27.79,-11.13 53.05,-46.38 64.75,-76.24 5.77,-14.73 7.15,-29.58 5.23,-43.64 h -137.69 c 13.95,-24.67 63.23,-42.72 108.12,-54.52 -16.99,-15.17 -39.68,-24.67 -65.21,-24.13 -85.73,1.82 -167.35,19.3 -234.46,78.5 -41.77,36.84 -88.25,49.2 -141.16,26.12 -68.86,-30.04 -83.07,-104.18 -20.44,-144.73 62.51,-40.48 132.33,-73.4 203.24,-96.36 124.52,-40.31 252.32,-70.51 377.78,-104.67 -78.58,-35.25 -156.21,-70.59 -234.43,-104.57 -10.34,-4.49 -25.42,-6.3 -35.39,-2.22 z m -498.59,913.88 c -6.15,6.52 -18.79,13.64 -25.81,11.57 -82.71,-24.38 -164.93,-50.46 -250.61,-77.13 101.64,-105.72 223.31,-115.27 356.33,-23.68 -26.6,29.97 -52.55,60.28 -79.91,89.24 z m 985.54,-2276.93 c -41.54,-24.5 -88.14,-41.479 -134.09,-57.108 -36.86,-12.531 -45.22,-34.383 -43.93,-70.883 8.34,-235.707 13.36,-471.551 22.34,-707.23 2.56,-67.118 14.67,-133.8793 22.4,-200.7972812 7.79,0.2382812 15.58,0.4765622 23.38,0.7187502 50.47,327.210531 28.1,659.191531 50.6,988.960531 164.34,-73.839 175.48,-246.32 29.46,-426.941 3.17,-5.531 6.33,-11.051 9.5,-16.57 34.11,24.082 74.08,42.89 101.27,73.179 98.62,109.891 97.96,271.5 4.95,392.641 -23.74,30.92 -43.99,48.76 -85.88,24.03 z M 1369.93,3353.25 c -110.63,-26.57 -219.01,-58.84 -329.71,-76.7 -61.657,-9.95 -131.13,38.11 -176.263,97.81 156.193,33.16 309.723,65.75 466.913,99.12 12.86,-39.57 23.62,-72.69 39.06,-120.23" style="fill:#053f88;fill-opacity:1;fill-rule:nonzero;stroke:none" id="path12"/>
    </g>
  </g>
</svg>